Coordinates
version=1
nRows=4
nColumns=63
inDegrees=yes

Units are S.I. units (second, meters, Newtons, ...)
If the header above contains a line with 'inDegrees', this indicates whether rotational values are in degrees (yes) or radians (no).

endheader
time	pelvis_tilt	pelvis_list	pelvis_rotation	pelvis_tx	pelvis_ty	pelvis_tz	hip_flexion_r	hip_adduction_r	hip_rotation_r	knee_angle_r	knee_angle_r_beta	ankle_angle_r	subtalar_angle_r	mtp_angle_r	hip_flexion_l	hip_adduction_l	hip_rotation_l	knee_angle_l	knee_angle_l_beta	ankle_angle_l	subtalar_angle_l	mtp_angle_l	L5_S1_Flex_Ext	L5_S1_Lat_Bending	L5_S1_axial_rotation	L4_L5_Flex_Ext	L4_L5_Lat_Bending	L4_L5_axial_rotation	L3_L4_Flex_Ext	L3_L4_Lat_Bending	L3_L4_axial_rotation	L2_L3_Flex_Ext	L2_L3_Lat_Bending	L2_L3_axial_rotation	L1_L2_Flex_Ext	L1_L2_Lat_Bending	L1_L2_axial_rotation	L1_T12_Flex_Ext	L1_T12_Lat_Bending	L1_T12_axial_rotation	Abs_r3	Abs_r2	Abs_r1	Abs_t1	Abs_t2	neck_flexion	neck_bending	neck_rotation	arm_flex_r	arm_add_r	arm_rot_r	elbow_flex_r	pro_sup_r	wrist_flex_r	wrist_dev_r	arm_flex_l	arm_add_l	arm_rot_l	elbow_flex_l	pro_sup_l	wrist_flex_l	wrist_dev_l
      0.00000000	      5.44241726	     -5.32475301	     82.86933605	      0.26095672	      0.96372488	      0.59328551	      6.86908379	      3.22263287	    -25.50010823	      4.38798063	      0.07658471	     19.26910353	      2.03896870	      0.00000000	      5.30384319	     -3.75626100	     26.53645069	      1.65238678	      0.02883959	     11.64562043	     16.50549113	      0.00000000	      0.08626244	      0.64516081	      0.51616496	      0.16019798	      0.85806388	      0.54842527	      0.14172056	      1.56864400	      0.54842527	      0.09858934	      1.56864400	      0.45164434	      0.08010330	      1.31561193	      0.41938403	      0.04929036	      0.99935410	      0.38712372	      0.61616398	      7.29818813	      2.87075466	      0.00000000	      0.00000000	     22.46281554	     -1.64203862	     -6.19908886	     23.44392621	    -12.31597534	     93.96077136	     48.39191549	     89.25041673	     -0.91276028	     21.27037835	     18.87947201	    -10.48707346	     76.65989522	     53.31738635	     54.12105479	    -14.97136890	     17.90317100
      0.01666667	      5.98271082	     -5.22805064	     83.85093620	      0.25884293	      0.96363471	      0.59241732	      6.17326423	      4.04049695	    -22.96808551	      2.84895117	      0.04972358	     19.56066528	     -1.61411829	      0.00000000	      5.18727153	     -4.20501191	     28.39799024	      1.74388555	      0.03043654	     10.00875077	     16.08493144	      0.00000000	      0.08600804	      0.71029533	      0.40629243	      0.15972554	      0.94469278	      0.43168571	      0.14130261	      1.72701205	      0.43168571	      0.09829859	      1.72701205	      0.35550588	      0.07986707	      1.44843423	      0.33011260	      0.04914500	      1.10024746	      0.30471932	      0.61434685	      8.03500278	      2.25967662	      0.00000000	      0.00000000	     21.53736747	     -2.51568707	     -6.86824501	     23.74802512	    -12.65626223	     96.07140554	     47.99877738	     89.11237732	     -4.50268402	     17.28944641	     20.71361097	    -10.06668315	     80.84466470	     53.11943052	     46.45279847	    -14.58341857	     21.50719146
      0.03333333	      6.32842951	     -5.19957142	     84.30570121	      0.25741221	      0.96345882	      0.59184137	      5.72959150	      4.56971413	    -19.74421122	      1.74425155	      0.03044293	     19.59365762	     -5.58841571	      0.00000000	      5.09551426	     -4.48761635	     29.63195941	      1.75160888	      0.03057134	      8.75360223	     16.06943851	      0.00000000	      0.08566946	      0.75497347	      0.41288346	      0.15909675	      1.00411471	      0.43868868	      0.14074635	      1.83564249	      0.43868868	      0.09791162	      1.83564249	      0.36127303	      0.07955266	      1.53954189	      0.33546781	      0.04895153	      1.16945390	      0.30966260	      0.61192835	      8.54041085	      2.29633394	      0.00000000	      0.00000000	     21.08330983	     -3.46934046	     -7.94299455	     23.43586666	    -13.27665221	     95.44057727	     48.03545562	     88.93592881	     -6.16431242	     14.80042619	     21.90633656	     -9.51457724	     83.58651541	     52.59490389	     41.88537558	    -13.53056562	     23.36489406
      0.05000000	      6.47153494	     -5.25764781	     84.51246538	      0.25656415	      0.96314869	      0.59156206	      5.61018948	      4.77987569	    -18.40220561	      1.18660470	      0.02071016	     20.16795919	     -7.11472148	      0.00000000	      5.09537575	     -4.58527228	     30.72291634	      1.70448393	      0.02974886	      7.94322578	     16.28252597	      0.00000000	      0.08955107	      0.77826112	      0.41988905	      0.16630529	      1.03508729	      0.44613211	      0.14712345	      1.89226408	      0.44613211	      0.10234792	      1.89226408	      0.36740292	      0.08315712	      1.58703007	      0.34115985	      0.05116948	      1.20552647	      0.31491679	      0.63965435	      8.80384542	      2.33529692	      0.00000000	      0.00000000	     21.02938663	     -3.63015732	     -7.99397199	     22.92676148	    -13.80212748	     93.43859033	     48.28109434	     88.70010558	     -6.23960028	     13.57658174	     22.31124689	     -9.16065153	     84.40820317	     52.18768605	     41.34168760	    -12.63684374	     24.59700195
